<?xml version="1.0" encoding="iso-8859-1"?>
<!-- Generator: Adobe Illustrator 23.0.3, SVG Export Plug-In . SVG Version: 6.00 Build 0)  -->
<svg xmlns="http://www.w3.org/2000/svg" xmlns:xlink="http://www.w3.org/1999/xlink" viewBox="0 0 50 50" width="50px" height="50px">
      <g id="IOS_copy_8_">
         <path d="M45.912,23.988c0,0.6-0.4,1-1,1h-3.9v3.9c0,0.6-0.4,1-1,1c-0.6,0-1-0.4-1-1v-3.9h-3.9c-0.6,0-1-0.4-1-1s0.4-1,1-1h3.9v-3.9c0-0.6,0.4-1,1-1c0.6,0,1,0.4,1,1v3.9h3.9C45.512,22.988,45.912,23.388,45.912,23.988z M50.012,23.988c0,5.5-4.5,10-10,10s-10-4.5-10-10s4.5-10,10-10S50.012,18.488,50.012,23.988z M48.012,23.988c0-4.4-3.6-8-8-8s-8,3.6-8,8s3.6,8,8,8S48.012,28.388,48.012,23.988z"/>
      </g>
      <path d="M31,24c0-4.282,2.993-7.859,7-8.769V3c0-0.552-0.447-1-1-1H13c-0.553,0-1,0.448-1,1v44c0,0.358,0.191,0.689,0.502,0.867c0.311,0.178,0.693,0.177,1.002-0.003L25,41.158l11.496,6.706C36.651,47.955,36.826,48,37,48c0.172,0,0.344-0.044,0.498-0.133C37.809,47.689,38,47.358,38,47V32.769C33.993,31.859,31,28.282,31,24z"/>
</svg>